<mxfile host="app.diagrams.net" modified="2021-04-17T15:42:38.039Z" agent="5.0 (Windows NT 10.0; Win64; x64) AppleWebKit/537.36 (KHTML, like Gecko) Chrome/89.0.4389.114 Safari/537.36 OPR/75.0.3969.171" etag="UDxgRRUW-rew8JdMdjIw" version="14.5.8" type="github">
  <diagram id="fI2FRLbe9Thx7USrb-zm" name="Page-1">
    <mxGraphModel dx="1062" dy="584" grid="1" gridSize="10" guides="1" tooltips="1" connect="1" arrows="1" fold="1" page="1" pageScale="1" pageWidth="850" pageHeight="1100" math="0" shadow="0">
      <root>
        <mxCell id="0" />
        <mxCell id="1" parent="0" />
        <mxCell id="z9ftaDmFX_MJndl0uFdB-8" value="" style="rounded=0;whiteSpace=wrap;html=1;" vertex="1" parent="1">
          <mxGeometry x="210" y="90" width="340" height="300" as="geometry" />
        </mxCell>
        <mxCell id="z9ftaDmFX_MJndl0uFdB-9" style="rounded=1;orthogonalLoop=1;jettySize=auto;html=1;exitX=1;exitY=0.3333333333333333;exitDx=0;exitDy=0;exitPerimeter=0;entryX=0;entryY=0.5;entryDx=0;entryDy=0;" edge="1" parent="1" source="z9ftaDmFX_MJndl0uFdB-10" target="z9ftaDmFX_MJndl0uFdB-11">
          <mxGeometry relative="1" as="geometry" />
        </mxCell>
        <mxCell id="z9ftaDmFX_MJndl0uFdB-10" value="Customer" style="shape=umlActor;verticalLabelPosition=bottom;verticalAlign=top;html=1;outlineConnect=0;" vertex="1" parent="1">
          <mxGeometry x="130" y="190" width="30" height="60" as="geometry" />
        </mxCell>
        <mxCell id="z9ftaDmFX_MJndl0uFdB-18" style="edgeStyle=none;rounded=1;orthogonalLoop=1;jettySize=auto;html=1;exitX=0.5;exitY=0;exitDx=0;exitDy=0;entryX=0.5;entryY=1;entryDx=0;entryDy=0;fontSize=16;" edge="1" parent="1" source="z9ftaDmFX_MJndl0uFdB-11" target="z9ftaDmFX_MJndl0uFdB-16">
          <mxGeometry relative="1" as="geometry" />
        </mxCell>
        <mxCell id="z9ftaDmFX_MJndl0uFdB-11" value="Pay for food" style="ellipse;whiteSpace=wrap;html=1;" vertex="1" parent="1">
          <mxGeometry x="290" y="240" width="80" height="60" as="geometry" />
        </mxCell>
        <mxCell id="z9ftaDmFX_MJndl0uFdB-14" style="rounded=1;orthogonalLoop=1;jettySize=auto;html=1;exitX=0;exitY=0.3333333333333333;exitDx=0;exitDy=0;exitPerimeter=0;entryX=1;entryY=0.5;entryDx=0;entryDy=0;" edge="1" parent="1" source="z9ftaDmFX_MJndl0uFdB-12" target="z9ftaDmFX_MJndl0uFdB-13">
          <mxGeometry relative="1" as="geometry" />
        </mxCell>
        <mxCell id="z9ftaDmFX_MJndl0uFdB-20" style="edgeStyle=none;rounded=1;orthogonalLoop=1;jettySize=auto;html=1;exitX=0;exitY=0.3333333333333333;exitDx=0;exitDy=0;exitPerimeter=0;entryX=1;entryY=0.5;entryDx=0;entryDy=0;fontSize=16;" edge="1" parent="1" source="z9ftaDmFX_MJndl0uFdB-12" target="z9ftaDmFX_MJndl0uFdB-19">
          <mxGeometry relative="1" as="geometry" />
        </mxCell>
        <mxCell id="z9ftaDmFX_MJndl0uFdB-12" value="Administrator" style="shape=umlActor;verticalLabelPosition=bottom;verticalAlign=top;html=1;outlineConnect=0;" vertex="1" parent="1">
          <mxGeometry x="590" y="180" width="30" height="60" as="geometry" />
        </mxCell>
        <mxCell id="z9ftaDmFX_MJndl0uFdB-13" value="Confirm transaction" style="ellipse;whiteSpace=wrap;html=1;" vertex="1" parent="1">
          <mxGeometry x="420" y="180" width="80" height="60" as="geometry" />
        </mxCell>
        <mxCell id="z9ftaDmFX_MJndl0uFdB-15" value="Terminal" style="text;html=1;strokeColor=none;fillColor=none;align=center;verticalAlign=middle;whiteSpace=wrap;rounded=0;fontSize=16;" vertex="1" parent="1">
          <mxGeometry x="220" y="100" width="60" height="20" as="geometry" />
        </mxCell>
        <mxCell id="z9ftaDmFX_MJndl0uFdB-16" value="Save transaction information" style="ellipse;whiteSpace=wrap;html=1;" vertex="1" parent="1">
          <mxGeometry x="290" y="130" width="80" height="60" as="geometry" />
        </mxCell>
        <mxCell id="z9ftaDmFX_MJndl0uFdB-17" style="edgeStyle=none;rounded=1;orthogonalLoop=1;jettySize=auto;html=1;exitX=0.5;exitY=1;exitDx=0;exitDy=0;fontSize=16;" edge="1" parent="1" source="z9ftaDmFX_MJndl0uFdB-16" target="z9ftaDmFX_MJndl0uFdB-16">
          <mxGeometry relative="1" as="geometry" />
        </mxCell>
        <mxCell id="z9ftaDmFX_MJndl0uFdB-19" value="Order food" style="ellipse;whiteSpace=wrap;html=1;" vertex="1" parent="1">
          <mxGeometry x="420" y="280" width="80" height="60" as="geometry" />
        </mxCell>
      </root>
    </mxGraphModel>
  </diagram>
</mxfile>
